# xmcd
#
# Track frame offsets: 
#        150
#        17859
#        40293
#        63845
#        83571
#        102077
#        119315
#        141672
#        170464
#        189054
#        213875
#        236742
#        257417
#        277736
#        291949
#
# Disc length: 4227 seconds
#
# Revision: 0
# Processed by: cddbd v1.5.2PL0 Copyright (c) Steve Scherf et al.
# Submitted via: ExactAudioCopy v0.99pb3
#
DISCID=ca10810f
DTITLE=Various Artist - Midnight Soul - After Midnight
DYEAR=2007
DGENRE=R&B
TTITLE0=Montell Jordan - This Is How We Do It
TTITLE1=Profyle - Liar
TTITLE2=Blackstreet - Don't Leave Me
TTITLE3=Brian McKnight - Back At One
TTITLE4=Aaliyah - Miss You
TTITLE5=Erykah Badu - On and On
TTITLE6=India Arie - Brown Skin
TTITLE7=Aaron Hall - I Miss You
TTITLE8=Dru Hill - Never Make A Promise
TTITLE9=Kelly Price - Friend Of Mine
TTITLE10=Musiq (Soulchild) - Love
TTITLE11=Jon B - They Don't Know
TTITLE12=Tony! Tony! Tone! - Anniversary
TTITLE13=Shai - If I Ever Fall In Love
TTITLE14=Jodeci - Lately
EXTD=
EXTT0=
EXTT1=
EXTT2=
EXTT3=
EXTT4=
EXTT5=
EXTT6=
EXTT7=
EXTT8=
EXTT9=
EXTT10=
EXTT11=
EXTT12=
EXTT13=
EXTT14=
PLAYORDER=
